<?xml version="1.0" encoding="utf-8"?>
<!-- Generator: Adobe Illustrator 22.0.1, SVG Export Plug-In . SVG Version: 6.00 Build 0)  -->
<svg version="1.1" id="Camada_1" xmlns="http://www.w3.org/2000/svg" xmlns:xlink="http://www.w3.org/1999/xlink" x="0px" y="0px"
	 viewBox="0 0 100 100" style="enable-background:new 0 0 100 100;" xml:space="preserve">
<style type="text/css">
	.st0{fill:#FFFFFF;}
</style>
<g>
	<path class="st0" d="M56.7,56c-0.7,0-1.7,0.6-2.9,1.7v-6.7H51v20.8h2.9v-1.4c0.8,0.7,1.5,1.2,2.1,1.7h1c1.6,0,2.4-1.7,2.4-5v-6.4
		C59.3,57.5,58.4,56,56.7,56z M55.2,69.6c-1-0.3-1.4-0.6-1.4-1v-9.3c0-0.2,0.2-0.5,0.7-0.7h1.2c0.5,0.2,0.7,0.6,0.7,1.4v6.7
		c0,0.2,0.1,0.2,0.2,0.2C56.4,68.7,56,69.6,55.2,69.6z"/>
	<path class="st0" d="M29.9,53.3c0,0.3,0.2,0.5,0.5,0.5h3.1l-0.2,0.5v17c0.1,0.3,0.2,0.5,0.5,0.5h2.6V53.8h3.1
		c0.3,0,0.5-0.2,0.5-0.5v-2.4h-10V53.3z"/>
	<path class="st0" d="M45.7,68.2c-0.6,1-1.3,1.4-2.1,1.4c-0.3-0.5-0.5-1-0.5-1.4V56.2h-2.6v13.9c0,1.3,0.6,1.9,1.9,1.9h0.2
		c0.8,0,1.7-0.6,2.9-1.7h0.2v1.4h2.9V56.2h-2.9V68.2z"/>
	<path class="st0" d="M49.9,0.4C22.7,0.4,0.4,22.8,0.5,50.2c0.1,27.1,22.3,49.3,49.4,49.4C77.2,99.7,99.5,77.4,99.5,50
		C99.5,22.5,77.5,0.5,49.9,0.4z M56.6,28.7c0-0.2,0.1-0.2,0.2-0.2L56.6,28v-0.5h3.1v12.7c0,0.3,0.2,0.5,0.5,0.5h0.5
		c1-0.4,1.4-1.1,1.4-1.9V27.6h2.9v15.8h-2.9v-1.7c-1,1-2.1,1.6-3.3,1.9c-1.4,0-2.1-1.6-2.1-4.8V28.7z M49.9,27.3h1
		c2.1,0,3.3,1.7,3.6,5v6c0,3.1-1.4,4.8-4.1,5.3h-0.2c-2.9,0-4.3-2.2-4.3-6.7v-3.1C45.8,29.5,47.2,27.3,49.9,27.3z M38.4,22.1
		c1.3,4.9,1.9,7.5,1.9,7.9h0.5c0-0.8,0.6-3.4,1.9-7.9h3.1L42.2,35v7.9c0,0.3-0.2,0.5-0.5,0.5h-2.4c-0.3,0-0.5-0.2-0.5-0.5v-7.4
		c0-1.2-1.3-5.7-3.8-13.4H38.4z M70.3,76.5c0,1-6.8,1.4-20.3,1.4c-14.3,0-21.5-0.6-21.5-1.9c-1.4,0-2.3-3.3-2.9-10v-5.7
		c0-7.2,0.9-11.4,2.6-12.7c0.7-1.1,3.5-1.7,8.4-1.7c1.2-0.2,4.7-0.2,10.8-0.2h5.7c12.1,0,18.2,0.6,18.2,1.7
		c2.1,1.1,3.1,5.9,3.1,14.3C74.4,71.6,73,76.5,70.3,76.5z"/>
	<path class="st0" d="M65.8,56c-2.7,0.3-4.1,1.7-4.1,4.1v7.9c0.3,2.7,1.7,4.1,4.1,4.1h0.5c2.5,0,3.8-1.6,3.8-4.8v-0.7h-2.9v1.4
		c0,1.1-0.5,1.7-1.4,1.7c-1-0.3-1.4-1-1.4-1.9v-3.1h5.3c0.3,0,0.5-0.2,0.5-0.5v-2.6C70.1,57.8,68.6,56,65.8,56z M67.2,62.2h-2.9
		v-1.4c0-1.1,0.4-1.9,1.2-2.4c1.1,0.1,1.7,0.7,1.7,1.7V62.2z"/>
	<path class="st0" d="M49.6,40.7h1c0.6,0,1-1.1,1-3.3v-4.1c0-2.2-0.3-3.3-1-3.3h-0.2c-1,0-1.4,0.5-1.4,1.4v7.9
		C49,40.2,49.3,40.7,49.6,40.7z"/>
</g>
</svg>
