<?xml version="1.0" encoding="utf-8"?>
<!-- Generator: Adobe Illustrator 22.0.1, SVG Export Plug-In . SVG Version: 6.00 Build 0)  -->
<svg version="1.1" id="Camada_1" xmlns="http://www.w3.org/2000/svg" xmlns:xlink="http://www.w3.org/1999/xlink" x="0px" y="0px"
	 viewBox="0 0 100 100" style="enable-background:new 0 0 100 100;" xml:space="preserve">
<style type="text/css">
	.st0{fill:#FFFFFF;}
</style>
<path class="st0" d="M50.1,0.4C22.9,0.2,0.4,22.6,0.4,50c0,27.6,22,49.6,49.6,49.6c27.2,0,49.4-22.1,49.6-49.2
	C99.7,23.2,77.3,0.6,50.1,0.4 M63.3,28.7c0,0.7-0.4,1.1-1.1,1.1h-4.8c-1.4,0.6-2.1,1.8-2.1,3.7v2.6c0,0.7,0.3,1.1,1,1.1h6.9v6.9
	h-6.9c-0.6,0-0.9,0.4-1,1.1v33.5H44.7c-0.6,0-0.9-0.3-1-1V44.2h-6.9v-5.9c0-0.6,0.4-1,1.1-1.1h4.8c0.7,0,1.1-0.4,1.1-1.1V34
	c0-8.5,4.1-12.8,12.2-12.8h6.4c0.7,0,1.1,0.4,1.1,1.1V28.7z"/>
</svg>
