<?xml version="1.0" encoding="utf-8"?>
<!-- Generator: Adobe Illustrator 22.0.1, SVG Export Plug-In . SVG Version: 6.00 Build 0)  -->
<svg version="1.1" id="Camada_1" xmlns="http://www.w3.org/2000/svg" xmlns:xlink="http://www.w3.org/1999/xlink" x="0px" y="0px"
	 viewBox="0 0 100 100" style="enable-background:new 0 0 100 100;" xml:space="preserve">
<style type="text/css">
	.st0{fill:#FFFFFF;}
</style>
<g>
	<path class="st0" d="M50,59.4c5.1,0,9.4-4.1,9.4-9.4c0-5.2-4.2-9.4-9.4-9.4c-5.3,0-9.4,4.3-9.4,9.4C40.6,55.2,44.9,59.4,50,59.4"/>
	<path class="st0" d="M61.2,40.6c1.9,0,3.8,0,5.7,0c0.2,0,0.3,0,0.5-0.1c0.8-0.2,1.4-0.9,1.4-1.8c0-0.9,0-1.9,0-2.8
		c0-0.9,0-1.9,0-2.8c0-1-0.8-1.9-1.9-1.9c-1.9,0-3.8,0-5.7,0c-1,0-1.9,0.8-1.9,1.9c0,1.9,0,3.8,0,5.7C59.4,39.8,60.2,40.6,61.2,40.6
		"/>
	<path class="st0" d="M62.3,58.6c-2.6,3.7-6.3,5.8-10.9,6.3c-2.7,0.3-5.4-0.2-7.9-1.4c-2.5-1.2-4.6-3-6.1-5.4c-2.4-3.7-3-7.7-2-11.9
		h-4.2v0.3v20.1c0,0.1,0,0.1,0,0.2c0,0.8,0.6,1.7,1.5,1.8c0.2,0,0.3,0,0.5,0c11.1,0,22.2,0,33.4,0c0.1,0,0.2,0,0.3,0
		c0.2,0,0.3,0,0.4-0.1c0.8-0.2,1.3-0.9,1.4-1.8c0-1.4,0-2.8,0-4.2V46.5v-0.3h-4.2C65.6,50.7,64.9,54.9,62.3,58.6"/>
	<path class="st0" d="M49.8,0.1C22.1,0.3,0,22.6,0,50.2c0,27.7,22.2,49.7,49.9,49.8c27.9,0,50.1-22.2,50.1-50.2
		C99.9,22.4,77.2-0.1,49.8,0.1 M73,72.4c-0.9,1.1-2,1.7-3.4,1.9c-0.3,0-0.6,0.1-0.9,0.1c-3.5,0-7,0-10.5,0H50c-6.3,0-12.5,0-18.8,0
		c-1.6,0-2.9-0.6-4-1.7c-0.9-0.9-1.4-2-1.6-3.3c0-0.3,0-0.6,0-0.9c0-10.4,0-20.7,0-31.1c0-2.1,0-4.2,0-6.2c0-1.5,0.6-2.9,1.7-4
		c0.9-0.9,2.1-1.5,3.4-1.6c0.2,0,0.4,0,0.6,0c12.5,0,25,0,37.4,0c1.6,0,2.9,0.6,4,1.7c0.9,0.9,1.5,2.1,1.6,3.4c0,0.2,0,0.4,0,0.6
		c0,12.5,0,25,0,37.5C74.4,70.1,73.9,71.4,73,72.4"/>
	<path class="st0" d="M64.5,46.3h4.2v0.2c0,5.4,0,10.8,0,16.2c0,1.4,0,2.8,0,4.2c0,0.9-0.5,1.6-1.4,1.8c-0.1,0-0.3,0.1-0.4,0.1
		c-0.1,0-0.2,0-0.3,0c-11.1,0-22.2,0-33.4,0c-0.2,0-0.3,0-0.5,0c-1-0.2-1.6-1-1.5-1.8c0-0.1,0-0.1,0-0.2c0-6.7,0-13.4,0-20.1v-0.3
		h4.2c-1,4.2-0.4,8.2,2,11.9c1.5,2.4,3.6,4.2,6.1,5.4c2.5,1.2,5.1,1.7,7.9,1.4c4.6-0.5,8.2-2.6,10.9-6.3
		C64.9,54.9,65.6,50.7,64.5,46.3"/>
	<path class="st0" d="M59.4,50c0,5.3-4.3,9.4-9.4,9.4c-5.1,0-9.4-4.2-9.4-9.4c0-5.1,4.1-9.4,9.4-9.4C55.2,40.6,59.4,44.8,59.4,50"/>
	<path class="st0" d="M68.7,36c0,0.9,0,1.9,0,2.8c0,0.8-0.6,1.6-1.4,1.8c-0.2,0-0.3,0.1-0.5,0.1c-1.9,0-3.8,0-5.7,0
		c-1,0-1.9-0.8-1.9-1.9c0-1.9,0-3.8,0-5.7c0-1,0.8-1.9,1.9-1.9c1.9,0,3.8,0,5.7,0c1,0,1.8,0.8,1.9,1.9C68.8,34.1,68.7,35,68.7,36"/>
</g>
</svg>
