<?xml version="1.0" encoding="utf-8"?>
<!-- Generator: Adobe Illustrator 22.0.1, SVG Export Plug-In . SVG Version: 6.00 Build 0)  -->
<svg version="1.1" id="Camada_1" xmlns="http://www.w3.org/2000/svg" xmlns:xlink="http://www.w3.org/1999/xlink" x="0px" y="0px"
	 viewBox="0 0 100 100" style="enable-background:new 0 0 100 100;" xml:space="preserve">
<style type="text/css">
	.st0{fill:#FFFFFF;}
</style>
<g>
	<path class="st0" d="M49,0C22.2,0.5-0.1,22.5,0.4,50.6C0.9,77.3,22.7,99.2,50,99.2c27.5,0,50.1-22.5,49.6-50.6
		C99.1,21.9,77.1-0.5,49,0 M73.1,70.9c-0.4,1.3-1.7,2.3-3.1,2.2c-0.5,0-1-0.2-1.5-0.5c-4-2.4-8.3-4.2-12.9-5.3c-2-0.5-4-0.9-6.1-1.1
		c-2-0.2-4.1-0.4-6.1-0.4c-2.2,0-4.4,0.1-6.6,0.2c-4,0.3-8,1-11.9,1.9c-1.7,0.4-3.4-0.7-3.8-2.4c-0.4-1.6,0.7-3.3,2.4-3.7
		c2.5-0.5,5-1,7.5-1.4c2.7-0.4,5.3-0.7,8-0.8c1.1,0,2.2,0,3.3,0c0-0.1,0-0.1,0-0.1c2.2,0.1,4.3,0.2,6.5,0.4c6.3,0.6,12.3,2.1,18,4.9
		c1.7,0.8,3.3,1.7,4.8,2.6C73,68,73.5,69.5,73.1,70.9 M79.4,56.6c-0.2,1.6-1.4,2.8-3.1,3.2c-1,0.2-2,0-2.8-0.5
		c-3.1-1.9-6.4-3.4-9.8-4.6c-3.2-1.1-6.4-2-9.8-2.5c-2.1-0.3-4.2-0.6-6.3-0.8c-1.6-0.2-3.1-0.2-4.7-0.2c-2.1,0-4.3,0-6.4,0.2
		c-1.8,0.1-3.6,0.4-5.3,0.6c-2.5,0.4-5,1-7.4,1.7c-2.5,0.6-4.8-1.3-4.8-3.8c0-1.7,1.1-3.2,2.7-3.6c2.6-0.8,5.2-1.4,7.9-1.8
		c1.9-0.3,3.7-0.6,5.6-0.7c2.2-0.2,4.3-0.2,6.8-0.4c2.3,0.1,4.8,0.2,7.3,0.5c6.8,0.6,13.4,2.2,19.8,4.7c2.9,1.2,5.7,2.6,8.4,4.2
		C78.9,53.5,79.6,54.9,79.4,56.6 M82.5,44.6c-1.1,0.2-2.2,0-3.1-0.6c-4.1-2.4-8.6-4.1-13.2-5.4c-2.9-0.8-5.7-1.4-8.7-1.9
		C55,36.3,52.5,36,50,35.8c-1.7-0.2-3.3-0.2-5-0.2c-2.1,0-4.2-0.1-6.2,0c-2.3,0.1-4.6,0.3-6.9,0.6c-3.5,0.4-6.9,1.1-10.3,2.1
		c-2.7,0.8-5.5-1.1-5.9-3.9c-0.3-2.3,1.1-4.4,3.3-5c2.9-0.9,5.9-1.6,9-2c1.9-0.3,3.8-0.5,5.7-0.7c2-0.2,4.1-0.3,6-0.4
		c1.4,0,2.7,0,4,0c2,0.1,3.9,0.1,5.9,0.2c2,0.1,4,0.3,6,0.6c7.5,1,14.9,2.7,21.9,5.6c2.3,1,4.5,2.1,6.7,3.4c1.7,1,2.5,2.8,2.2,4.7
		C86,42.8,84.5,44.3,82.5,44.6"/>
</g>
</svg>
