<svg id="Camada_1" xmlns="http://www.w3.org/2000/svg" viewBox="0 0 26.3 28.6"><style>.st0{fill:none;stroke:red;stroke-linecap:round;stroke-linejoin:round;stroke-miterlimit:10}</style><path class="st0" d="M21.6 4.5c-.2-.2-.5-.4-.7-.6m-3 21.6c4.5-2 7.7-6.5 7.7-11.7 0-2.7-.8-5.2-2.3-7.2-.1-.2-.3-.4-.5-.6"/><path class="st0" d="M17.4 22.8c3.4-1.5 5.8-4.8 5.8-8.7 0-3-1.4-5.7-3.5-7.4m-1.5 2l-.3-.3"/><path class="st0" d="M16.2 21c2.6-1.1 4.5-3.7 4.5-6.8 0-1.5-.4-2.7-1-3.9-.1-.1-.2-.3-.3-.4M4.1 22.4c-.6-.7-1.2-1.5-1.7-2.2-1.1-2-1.8-4.2-1.8-6.5 0-4.1 1.9-7.6 4.8-9.9m0 4c.4-.4.7-.8 1.2-1.1"/><path class="st0" d="M8.8 22.8c-.3-.1-.6-.3-.9-.5-.5-.3-1-.6-1.5-1-.4-.3-.7-.7-1.1-1.1C3.9 18.4 3 16.3 3 13.9c0-1.8.5-3.5 1.4-5"/><path class="st0" d="M10.1 21c-2.7-1.1-4.6-3.7-4.6-6.9 0-2.3 1-4.4 2.8-5.7"/></svg>