<svg xmlns="http://www.w3.org/2000/svg" viewBox="1496 2420 35 36"><defs><style>.a{fill-rule:evenodd}</style></defs><path class="a" d="M1527.209 2456h-27.418a3.786 3.786 0 0 1-3.791-3.781v-24.074a3.786 3.786 0 0 1 3.791-3.781h2.771v-3.273a1.094 1.094 0 0 1 2.188 0v3.273h16.95v-3.273a1.094 1.094 0 0 1 2.188 0v3.273h3.318a3.787 3.787 0 0 1 3.794 3.781v24.074a3.787 3.787 0 0 1-3.791 3.781zm2.063-28.216a1.65 1.65 0 0 0-1.652-1.648h-3.729v3.137a1.094 1.094 0 0 1-2.188 0v-3.137h-16.953v3.137a1.094 1.094 0 0 1-2.188 0v-3.137h-3.182a1.65 1.65 0 0 0-1.652 1.648v5.852h31.544zm0 6.943h-31.544v17.853a1.649 1.649 0 0 0 1.652 1.647h28.24a1.649 1.649 0 0 0 1.652-1.647zm-9.307 9.827a1.433 1.433 0 1 1 1.435-1.433 1.436 1.436 0 0 1-1.435 1.433zm0-4.3a1.433 1.433 0 1 1 1.435-1.432 1.436 1.436 0 0 1-1.435 1.433zm-4.31 4.3a1.434 1.434 0 1 1 1.437-1.433 1.436 1.436 0 0 1-1.437 1.433zm0-4.3a1.433 1.433 0 1 1 1.437-1.433 1.435 1.435 0 0 1-1.437 1.434zm-4.31 8.6a1.433 1.433 0 1 1 1.436-1.433 1.436 1.436 0 0 1-1.436 1.432zm0-4.3a1.434 1.434 0 1 1 1.436-1.433 1.436 1.436 0 0 1-1.436 1.433zm0-4.3a1.433 1.433 0 1 1 1.436-1.433 1.436 1.436 0 0 1-1.436 1.434zm-4.31 8.6a1.433 1.433 0 1 1 1.437-1.433 1.436 1.436 0 0 1-1.437 1.432zm0-4.3a1.434 1.434 0 1 1 1.437-1.433 1.436 1.436 0 0 1-1.437 1.433zm0-4.3a1.433 1.433 0 1 1 1.437-1.433 1.436 1.436 0 0 1-1.437 1.434z"/></svg>