<svg id="Camada_1" xmlns="http://www.w3.org/2000/svg" viewBox="0 0 26.3 28.6"><style>.st0{fill:none;stroke:red;stroke-linecap:round;stroke-linejoin:round;stroke-miterlimit:10}</style><path class="st0" d="M12.6 23.1l-1 1m3.3-20.9l1 1m2.2 2.1l1.3 1.3m.2.2l4.2 4.2-8.8 8.8M10.6 25l-.7.7L1 16.8l5.3-5.3m0 0l8.4-8.4"/><path class="st0" d="M10.6 21l-.3.3c-.2.2-.5.2-.7 0l-1-1c-.2-.2-.2-.5 0-.7l.3-.3c.1-.3.4-.3.6-.1l1 1c.3.2.3.6.1.8zm-.3-3.3l1.7 1.7m2.7-2.5l.3-.3c.2-.2.2-.5 0-.7l-1-1c-.2-.2-.5-.2-.7 0l-.3.3c-.2.2-.2.5 0 .7l1 1c.2.2.5.2.7 0zm3.4-3.4l.3-.3c.2-.2.2-.5 0-.7l-1-1c-.2-.2-.5-.2-.7 0l-.3.3c-.2.2-.2.5 0 .7l1 1c.1.2.5.2.7 0zm-6.7 3.1l1.8 1.7m1.5-5.1l1.8 1.8m-9.1 2.8l-.3.3c-.2.2-.5.2-.7 0l-1-1c-.2-.2-.2-.5 0-.7l.2-.4c.2-.2.5-.2.7 0l1 1c.3.2.3.6.1.8zm3.4-3.4l-.3.3c-.2.2-.5.2-.7 0l-1-1c-.2-.2-.2-.5 0-.7l.2-.4c.2-.2.5-.2.7 0l1 1c.3.3.3.6.1.8zm-3.7.1l1.8 1.7m1.6-5.1l1.7 1.7m-.5-2.9l1.7 1.8m-.6-2.9l1.8 1.7"/><ellipse transform="rotate(-57.356 14.577 25.645)" class="st0" cx="14.6" cy="25.6" rx="1.5" ry="1.5"/><path class="st0" d="M22.8 8.7l.9-.9s.8-.9 1.6 0l.4.4L23 11M5.1 12.5l-.2-3.2 3.4-3.2 2.7.4"/></svg>