<svg id="Camada_1" xmlns="http://www.w3.org/2000/svg" viewBox="0 0 26.3 28.6"><style>.st0{fill:none;stroke:red;stroke-linecap:round;stroke-linejoin:round;stroke-miterlimit:10}</style><path class="st0" d="M16.6 24.4c.3-.1.9-.3 1-1.2.1-1.2.5-2.1 1.3-2.5m5.6-2.2s-.4.9-1 1.8c0 0-.5 1-1.6.5s-2.2-.4-2.9-.1m-4.2 3.8h-.5s-1.1 0-1.2-1.2-.5-2.1-1.3-2.5m-5.6-2.3s.4.9 1 1.8c0 0 .5 1 1.6.5s2.2-.4 2.9-.1m2.6-16.2s1-.1 2.1 0c0 0 1.1 0 1.2 1.2s.5 2.1 1.3 2.5m5.6 2.3s-.4-.9-1-1.8c0 0-.5-1-1.6-.5-.4.2-.9.3-1.3.3"/><path class="st0" d="M16.4 4.5s-1-.1-2.1 0c0 0-1.1 0-1.2 1.2s-.5 2.1-1.3 2.5m-5.6 2.3s.4-.9 1-1.8c0 0 .5-1 1.6-.5s2.2.4 2.9.1m12.8 10.2c.5-.8-.5-1.6-.5-1.6s-1.3-.7-1.5-2.2c-.2-1.7.8-2.1.8-2.1s1.7-1 1.2-2.1m-18.3 8c-.5-.8.5-1.6.5-1.6s1.3-.7 1.5-2.2c.2-1.7-.8-2.1-.8-2.1s-1.7-1-1.2-2.1m7.2 1.2c.6-.4 1.3-.6 2.1-.6 1.8.1 3.2 1.7 3.1 3.6s-1.7 3.2-3.6 3.1c-1.8-.1-3.2-1.7-3.1-3.6 0-.4.1-.7.2-1"/><ellipse transform="rotate(-67.381 24.03 24.985)" class="st0" cx="24" cy="25" rx="1.8" ry="1.8"/><path class="st0" d="M23 1.1l.6-.6m-2.7 2.7l.6-.6m1.5.1l.6.5M21 .6l.5.5M5.3 26l.7-.6M3.3 28l.5-.5m1.6.1l.6.5m-2.7-2.6l.6.5M7 4.9c.8-.4 1.6-.7 2.4-.9M3.8 18.9l-.6-.9m-.7-1.6c-.3-1-.5-2-.5-3.1 0-2.6 1-4.9 2.7-6.6M.5 10.9c.2-2.9 2-5.5 4.4-6.8"/></svg>