<svg id="Camada_1" xmlns="http://www.w3.org/2000/svg" viewBox="0 0 26.3 28.6"><style>.st0{fill:none;stroke:red;stroke-linecap:round;stroke-linejoin:round;stroke-miterlimit:10}</style><path class="st0" d="M5.6 14.6c0 .6.1 1.2.2 1.7.8 3.9 4.3 6.9 8.4 6.9 4.7 0 8.6-3.9 8.6-8.6S19 6 14.2 6c-.6 0-1.1.1-1.7.2-.7.1-1.3.3-1.9.6-.7.3-1.4.8-2 1.3-.5.5-1 1-1.4 1.5M23.7 9c-.1-.2-.3-.5-.4-.7"/><path class="st0" d="M20.9 23.4c.9-.7 1.7-1.6 2.4-2.5 1.2-1.8 1.9-3.9 1.9-6.2 0-1.6-.3-3.1-.9-4.4M13.8 25.6h.5c1.4 0 2.8-.3 4.1-.8m3.2-18.4c-.4-.4-.9-.8-1.4-1.1-1.7-1.1-3.7-1.7-5.9-1.7-6.1 0-11 4.9-11 11 0 3.4 1.6 6.5 4 8.5m-5.5-4c.3.8.7 1.5 1.1 2.2M5.5 4.5C2.7 6.8 1 10.3 1 14.1m17.9 4.7c1-1.1 1.6-2.6 1.6-4.2 0-.7-.1-1.3-.3-1.9m-6 8.2c.4 0 .9 0 1.3-.1.5-.1 1-.3 1.4-.5"/><path class="st0" d="M18.8 10.3c-1.1-1.2-2.7-2-4.5-2-3.4 0-6.2 2.8-6.2 6.2 0 2.5 1.4 4.6 3.5 5.6"/></svg>