<svg id="Camada_1" xmlns="http://www.w3.org/2000/svg" viewBox="0 0 46 28.6"><style>.st0,.st1{fill:none;stroke:red;stroke-linecap:round;stroke-linejoin:round;stroke-miterlimit:10}.st1{fill:#fff}</style><path class="st0" d="M10.1 8.2c.6.2 1.1.5 1.6.9.3.2.6.4.8.6.4.3.7.6 1 .9l.9.9.9.9c1 .9 2.2 1.7 3.7 1.5 1-.1 1.8-.6 2.4-1.1.5-.3.9-.7 1.4-1.1.4-.4.9-.8 1.3-1.1.6-.5 1.1-1 1.7-1.5.6-.5 1.2-1 1.9-1.4C30 6.1 33.5 5.1 36.3 6c2 .7 3.3 2.2 4.6 3.6l1.2 1.2"/><path class="st0" d="M21.6 16.9c2.2-1.6 3.9-3.6 6.2-5.2s5.8-2.5 8.6-1.6c3.6 1.2 4.9 5.2 8.3 6.1M4.2 12.1c1.9-.7 4.3-.5 6.1.3 1.8.8 3.2 2 4.4 3.3.4.5 1 1 1.5 1.4.9.6 1.9 1.1 3 1m12.9-4.4c4.3-2 6.8 1.8 7.8 2.9"/><path class="st0" d="M21.7 20.7c2.2-1.6 3.9-3.6 6.2-5.2.5-.3 1-.6 1.6-.9m-12 7c.6.2 1.2.3 1.8.3M.4 18.6c.4-.3.8-.7 1.2-1 .8-.6 1.6-1.3 2.7-1.7 1.9-.7 4.3-.5 6.1.3.5.2.9.4 1.3.7.6.4 1.1.8 1.7 1.2.1.1.2.1.2.2l1.2 1.2"/><ellipse transform="rotate(-2.001 7.913 15.544) scale(1.00001)" class="st1" cx="7.9" cy="15.5" rx="1.6" ry="1.6"/><ellipse transform="rotate(-2.001 18.772 13.572) scale(1.00001)" class="st1" cx="18.8" cy="13.6" rx="1.6" ry="1.6"/><ellipse transform="rotate(-2.001 33.953 9.853) scale(1.00001)" class="st1" cx="34" cy="9.9" rx="1.6" ry="1.6"/></svg>