<svg id="Camada_1" xmlns="http://www.w3.org/2000/svg" viewBox="0 0 26.3 28.6"><style>.st0{fill:none;stroke:red;stroke-linecap:round;stroke-linejoin:round;stroke-miterlimit:10}</style><path class="st0" d="M12.2 14.5l-3.8 3.6H3.5v6.3h1.3m6 0h11.5V9m-19-.6v3h3.3l2-1.8"/><path class="st0" d="M15.7 24v-4.4s1.3-1.2 1.7-1.5m1.3-1.3v-6.5M11 8.5c.1.7-.5 1.3-1.2 1.3-.7.1-1.3-.4-1.3-1.1-.1-.7.4-1.2 1.1-1.3.7-.1 1.3.5 1.4 1.1zm3.6 4.5c.2.6-.2 1.3-.9 1.5-.7.2-1.3-.2-1.6-.9-.2-.6.2-1.3.9-1.5.7-.1 1.4.3 1.6.9zM20 8.6c.2.6-.2 1.3-.9 1.5-.7.2-1.3-.2-1.6-.9-.2-.6.2-1.3.9-1.5s1.3.3 1.6.9zm-8.1 12.9c-.3.6-1.1.8-1.7.5-.6-.3-.8-1.1-.5-1.7.3-.6 1.1-.8 1.7-.5.7.4.9 1.1.5 1.7z"/><path class="st0" d="M3.4 8.3l3.1-3h15.9v1.6M10.8 22.1v2.1m-4.6.2h1"/></svg>