<svg xmlns="http://www.w3.org/2000/svg" viewBox="859 2426 40 32"><defs><style>.a{fill:#1d1d10;fill-rule:evenodd}</style></defs><path class="a" d="M898.31 2426h-30.345a.654.654 0 0 0-.689.7v3.474h-7.586a.655.655 0 0 0-.69.7v22.257a4.819 4.819 0 0 0 4.828 4.869h29.655a5.558 5.558 0 0 0 5.517-5.565V2426.7a.655.655 0 0 0-.69-.7zm-37.931 27.131v-21.566h6.9v21.566a3.45 3.45 0 1 1-6.9 0zm37.242-.7a4.169 4.169 0 0 1-4.138 4.174h-26.276a4.854 4.854 0 0 0 1.448-3.478v-25.736h28.966zm-24.828-11.822h8.276a.655.655 0 0 0 .69-.7v-8.344a.654.654 0 0 0-.69-.7h-8.276a.654.654 0 0 0-.69.7v8.348a.655.655 0 0 0 .69.696zm.69-8.348h6.9v6.956h-6.9zm13.793-1.391h6.207a.7.7 0 0 1 0 1.391h-6.207a.7.7 0 0 1 0-1.391zm-2.069 3.478h8.276a.7.7 0 0 1 0 1.391h-8.276a.7.7 0 0 1 0-1.391zm0 3.478h8.276a.7.7 0 0 1 0 1.391h-8.276a.7.7 0 0 1 0-1.391zm-12.414 5.565h8.276a.7.7 0 0 1 0 1.392h-8.276a.7.7 0 0 1 0-1.392zm0 3.479h8.276a.7.7 0 0 1 0 1.391h-8.276a.7.7 0 0 1 0-1.391zm0 3.478h8.276a.7.7 0 0 1 0 1.391h-8.276a.7.7 0 0 1 0-1.391zm12.414-6.957h8.276a.7.7 0 0 1 0 1.392h-8.276a.7.7 0 0 1 0-1.392zm0 3.479h8.276a.7.7 0 0 1 0 1.391h-8.276a.7.7 0 0 1 0-1.391zm0 3.478h8.276a.7.7 0 0 1 0 1.391h-8.276a.7.7 0 0 1 0-1.391z"/></svg>