<svg id="Camada_1" xmlns="http://www.w3.org/2000/svg" viewBox="0 0 26.3 28.6"><style>.st0{fill:none;stroke:red;stroke-linecap:round;stroke-linejoin:round;stroke-miterlimit:10}</style><path class="st0" d="M13.4 3.2H5.7v11.9h8.6m1.9 0h4.1V3.4h-1.4"/><path transform="rotate(-90 9.978 23.647)" class="st0" d="M8 21.7h3.9v3.9H8z"/><path class="st0" d="M10 19.1v2.3"/><path transform="rotate(-90 15.968 23.647)" class="st0" d="M14 21.7h3.9v3.9H14z"/><path class="st0" d="M16 14.2v7.2m-6-4.9v1.1m0 1.3v.6m4.7-16.3h.6"/><path transform="rotate(-90 3.126 19.987)" class="st0" d="M1.2 18h3.9v3.9H1.2z"/><path class="st0" d="M7.4 15.4V20H5.2m19.2 2h.6v-4h-4v4h1.6m-3.9-5.1V20h2.2M11 11.5h-.7c-.3 0-.6-.3-.6-.6V7.4c0-.3.3-.6.6-.6h5.6c.3 0 .6.3.6.6v3.5c0 .3-.3.6-.6.6H14"/></svg>